# xmcd
#
# Track frame offsets:
#	150
#	21632
#	39812
#	55937
#	74390
#	96297
#	115072
#	132052
#	153420
#	173562
#	192282
#	208862
#	227575
#	248885
#	267157
#	283672
#
# Disc length: 4014 seconds
#
# Revision: 1
# Processed by: cddbd v1.5PL3 Copyright (c) Steve Scherf et al.
# Submitted via: CDex 1.50Beta5
#
DISCID=df0fac10
DTITLE=千昌夫 - 全曲集
DYEAR=1994
DGENRE=Country
TTITLE0=あんた
TTITLE1=北国の春
TTITLE2=君がすべてさ
TTITLE3=アケミという名で十八で
TTITLE4=酒暦
TTITLE5=望郷酒場
TTITLE6=味噌汁の詩
TTITLE7=めおとの旅
TTITLE8=夢追い人
TTITLE9=おやじ先生
TTITLE10=夕焼け雲
TTITLE11=津軽平野
TTITLE12=さよなら三角また来て四角
TTITLE13=望郷旅鴉
TTITLE14=わが町は緑なりき
TTITLE15=星影のワルツ
EXTD=
EXTT0=
EXTT1=
EXTT2=
EXTT3=
EXTT4=
EXTT5=
EXTT6=
EXTT7=
EXTT8=
EXTT9=
EXTT10=
EXTT11=
EXTT12=
EXTT13=
EXTT14=
EXTT15=
PLAYORDER=
